<svg xmlns="http://www.w3.org/2000/svg" xmlns:xlink="http://www.w3.org/1999/xlink" width="422.322" height="464.903" viewBox="0 0 422.322 464.903">
  <defs>
    <clipPath id="clip-path">
      <path id="Path_1919" data-name="Path 1919" d="M1133.675,1638.319c.213-20.774.691-41.515.6-62.25l16.762-1c-1.078,18.16-2.286,36.323-3.479,54.477-.518,2.673.229,6.263-.993,8.493C1142.342,1639.19,1137.966,1638.777,1133.675,1638.319Z" transform="translate(-1133.675 -1575.073)" fill="#237d9e"/>
    </clipPath>
    <clipPath id="clip-path-2">
      <path id="Path_1920" data-name="Path 1920" d="M1044.679,1638.535c-.852-.337-2.588-.029-2.889-1.012-.151-2.289-.327-4.579-.478-6.869q-1.853-27.781-3.571-55.581,8.466.5,16.775,1c-.069,20.578.367,41.257.606,61.864C1052.5,1639.373,1047.918,1638.676,1044.679,1638.535Z" transform="translate(-1037.741 -1575.073)" fill="#237d9e"/>
    </clipPath>
    <clipPath id="clip-path-3">
      <path id="Path_1966" data-name="Path 1966" d="M1659.4,243.135a38.637,38.637,0,0,1-7.329,13.661,29.026,29.026,0,0,1-5.811,5.757,40.5,40.5,0,0,1-3.944,2.448,53.509,53.509,0,0,1-13.506,5.026,72.271,72.271,0,0,1-14.669,1.916c-2.741.1-5.493.232-8.227.094a50.245,50.245,0,0,1-8.153-.565,21.643,21.643,0,0,0-3.884-.126c-2.174,2.745-5.426,3.938-8.276,5.719-4.024,2.516-8.333,4.579-12.053,7.579a14.3,14.3,0,0,1-1.8,1.068c-2.108-1.99-2.229-2.627-1.2-4.849.338-.73.533-1.534.807-2.3,1.1-3,2.182-6,3.294-9,1.163-3.152,2.35-6.289,3.508-9.379-1.134-.9-2.1-1.711-3.113-2.471-3.094-2.343-4.856-5.678-6.617-8.982a54.205,54.205,0,0,1-3.175-8.694,81.281,81.281,0,0,1-.952-8.662,32.016,32.016,0,0,1,3.516-12.586c1.054-1.919,1.932-3.941,3.021-5.845a21.333,21.333,0,0,1,5.086-6.072,6.215,6.215,0,0,0,.954-.986,26.4,26.4,0,0,1,7.653-6.179,31.043,31.043,0,0,1,6.4-3.017c4.616-1.416,9.21-3.026,14.168-2.9,1.894.043,3.8-.3,5.7-.345a13.053,13.053,0,0,1,4.9.382,2.14,2.14,0,0,0,.8.173c5.177-.264,9.954,1.443,14.582,3.35a42.511,42.511,0,0,1,9.095,4.994c2.216,1.624,4.534,3.1,6.6,4.924a40.219,40.219,0,0,1,9.767,12.774,42.8,42.8,0,0,1,3.706,13.615A24.109,24.109,0,0,1,1659.4,243.135ZM1649.1,254.818a53.386,53.386,0,0,0,3.976-6.222,23.279,23.279,0,0,0,3.411-10.033,25.157,25.157,0,0,0-.087-7.111,65.87,65.87,0,0,0-1.767-6.615,29.213,29.213,0,0,0-7.8-12.379,72.968,72.968,0,0,0-10.947-8.657c-2.942-1.959-6.354-2.739-9.3-4.544a1.674,1.674,0,0,0-.529-.138c-4.123-.8-8.2-1.852-12.435-1.9-1.923-.016-3.851-.318-5.757-.182a58.87,58.87,0,0,0-11.1,1.748c-4.434,1.191-8.783,2.6-12.514,5.421-1.527,1.151-3.078,2.269-4.609,3.417-.14.1-.2.3-.315.44-1.684,2.167-3.459,4.271-5.026,6.522a27.191,27.191,0,0,0-3.9,7.238c-.576,1.825-1.119,3.67-1.584,5.524a21.06,21.06,0,0,0-.261,10.038c.124.535.211,1.079.338,1.61a39.678,39.678,0,0,0,4.466,11.12c.691,1.161,1.7,2.141,2.347,3.319.719,1.326,2.08,2.025,2.853,3.274a11.024,11.024,0,0,0,.932,1,4.519,4.519,0,0,1,1.109,4.558c-1.355,4.075-2.531,8.207-3.876,12.288-.395,1.193-.792,2.358-1.054,3.522.2.124.316.233.35.208,4.862-2.713,9.714-5.439,14.442-8.091.1-.367.126-.543.18-.7.675-2.081,1.083-2.367,3.141-2.088a35.479,35.479,0,0,0,3.532.543c4.1.139,8.186.572,12.293.409,3.753-.155,7.522-.158,11.249-.555a60.489,60.489,0,0,0,10.969-2.342,41.14,41.14,0,0,0,11.828-5.673A26.72,26.72,0,0,0,1649.1,254.818Z" transform="translate(-1564.298 -193.397)" fill="#fcba12"/>
    </clipPath>
    <clipPath id="clip-path-4">
      <path id="Path_1967" data-name="Path 1967" d="M1663.682,258.728a53.3,53.3,0,0,1-3.976,6.222,26.711,26.711,0,0,1-5.443,4.967,41.145,41.145,0,0,1-11.829,5.673,60.479,60.479,0,0,1-10.969,2.342c-3.727.4-7.5.4-11.249.555-4.107.164-8.2-.269-12.294-.409a35.451,35.451,0,0,1-3.531-.543c-2.058-.28-2.467.007-3.141,2.088-.053.161-.083.337-.18.7-4.729,2.653-9.579,5.379-14.442,8.092-.034.024-.148-.085-.35-.208.261-1.165.659-2.33,1.054-3.522,1.345-4.081,2.521-8.213,3.876-12.288a4.521,4.521,0,0,0-1.109-4.558,11.034,11.034,0,0,1-.933-1c-.772-1.249-2.134-1.948-2.853-3.274-.647-1.179-1.656-2.159-2.347-3.319a39.693,39.693,0,0,1-4.466-11.12c-.127-.53-.214-1.074-.338-1.61a21.06,21.06,0,0,1,.26-10.038c.465-1.854,1.008-3.7,1.584-5.524a27.2,27.2,0,0,1,3.9-7.238c1.568-2.251,3.343-4.355,5.027-6.522.114-.144.175-.339.315-.44,1.531-1.149,3.082-2.266,4.609-3.417,3.731-2.818,8.08-4.23,12.514-5.421a58.869,58.869,0,0,1,11.1-1.748c1.906-.137,3.834.166,5.757.182,4.238.045,8.312,1.1,12.435,1.9a1.678,1.678,0,0,1,.53.138c2.945,1.805,6.358,2.586,9.3,4.544a72.968,72.968,0,0,1,10.947,8.657,29.208,29.208,0,0,1,7.8,12.379,65.868,65.868,0,0,1,1.767,6.615,25.148,25.148,0,0,1,.087,7.111A23.28,23.28,0,0,1,1663.682,258.728Z" transform="translate(-1578.672 -207.136)" fill="#fcba12"/>
    </clipPath>
  </defs>
  <g id="img-404" transform="translate(-387 -407.097)">
    <g id="Group_1040" data-name="Group 1040" transform="translate(-106)">
      <path id="Path_1970" data-name="Path 1970" d="M879.622,541.322c-4.052-19.583-30.387-20.258-20.933-42.542,14.181-32.413,31.738-66.851,4.052-98.589-12.155-14.181-29.712-21.608-46.593-27.011-8.1-2.7-18.232-2.7-16.882-12.155,0-4.052,5.4-10.129,7.428-14.181,3.376-6.753,6.077-13.505,6.753-20.933,2.026-20.933-10.8-38.49-28.361-49.294C752,256.36,677.043,252.984,656.109,294.85a52.988,52.988,0,0,0-1.418,9.947c-4.724-4.739-13.491-9.757-14.788-10.622-40.516-20.258-95.887-3.376-120.2,35.114-9.648,15.05-13.771,31.864-11.635,47.922-16.177,4.226-32.17,12.088-28.881,30.409,1.351,5.4,8.1,12.155,8.1,17.557.675,6.753-6.077,8.778-10.129,12.155-29.712,24.31-22.284,62.124,3.376,87.109,16.206,16.206,53.346,39.841,77.655,24.31-25.66,27.686,29.036,60.487,49.97,65.889,27.686,7.428,58.046-.107,87.082-2.133,6.042-.378,13.993-3.168,21.009-7.442a6.1,6.1,0,0,0,1.3,4.46c7.428,11.48,51.529,14.106,61.658,12.756,28.361-4.052,58.9-6,80.822-28.287C871.334,582.508,883,560.229,879.622,541.322Z" transform="translate(35.108 187.437)" fill="#f7f5f5"/>
      <g id="Group_1039" data-name="Group 1039" transform="translate(512.417 407.097)">
        <ellipse id="Ellipse_33" data-name="Ellipse 33" cx="57" cy="12.5" rx="57" ry="12.5" transform="translate(112.583 439.903)" fill="#262626" opacity="0.05"/>
        <g id="Group_956" data-name="Group 956" transform="translate(143.157 432.075)">
          <g id="Group_954" data-name="Group 954" transform="translate(29.779)">
            <path id="Path_1917" data-name="Path 1917" d="M1132.015,1855.546c.875-5.192.675-11.589,2.31-16.182,3.482.639,7.324-.269,10.6.1a71.62,71.62,0,0,1,9.994,15.749C1147.45,1857.4,1139.588,1856.826,1132.015,1855.546Z" transform="translate(-1132.015 -1839.364)" fill="#eaeaea"/>
          </g>
          <g id="Group_955" data-name="Group 955">
            <path id="Path_1918" data-name="Path 1918" d="M1018.574,1855.156a68.832,68.832,0,0,1,9.853-15.6c3.266-.616,7.2.534,10.708-.19,1.641,4.638,1.589,10.957,2.683,16.142C1034.146,1856.692,1026.082,1857.586,1018.574,1855.156Z" transform="translate(-1018.574 -1839.364)" fill="#eaeaea"/>
          </g>
        </g>
        <g id="Group_965" data-name="Group 965" transform="translate(148.188 362.697)">
          <g id="Group_960" data-name="Group 960" transform="translate(25.183)">
            <g id="Group_959" data-name="Group 959">
              <g id="Group_958" data-name="Group 958" clip-path="url(#clip-path)">
                <g id="Group_957" data-name="Group 957" transform="translate(-59.913 -31.28)">
                  <rect id="Rectangle_248" data-name="Rectangle 248" width="136.12" height="120.466" fill="#7868E6"/>
                  <rect id="Rectangle_249" data-name="Rectangle 249" width="136.12" height="120.466" fill="#7868E6"/>
                </g>
              </g>
            </g>
          </g>
          <g id="Group_964" data-name="Group 964">
            <g id="Group_963" data-name="Group 963">
              <g id="Group_962" data-name="Group 962" clip-path="url(#clip-path-2)">
                <g id="Group_961" data-name="Group 961" transform="translate(-34.73 -31.28)">
                  <rect id="Rectangle_250" data-name="Rectangle 250" width="136.12" height="120.466" fill="#7868E6"/>
                  <rect id="Rectangle_251" data-name="Rectangle 251" width="136.12" height="120.466" fill="#7868E6"/>
                </g>
              </g>
            </g>
          </g>
        </g>
        <g id="Group_966" data-name="Group 966" transform="translate(163.736 200.055)">
          <path id="Path_1921" data-name="Path 1921" d="M1102.9,985.059c-.688-1.326-6.011-27.957-5.922-29.539a53.867,53.867,0,0,0,11.553-.023C1106.836,965.4,1105.083,975.233,1102.9,985.059Z" transform="translate(-1096.972 -955.497)" fill="#eaeaea"/>
        </g>
        <g id="Group_967" data-name="Group 967" transform="translate(159.777 178.431)">
          <path id="Path_1922" data-name="Path 1922" d="M1084.292,873.126s.6,5.79-2.4,7.551l1.226,10.372h17.2l1.9-10.372s-3.6.059-4.105-2.544a9.458,9.458,0,0,1,.1-4.4Z" transform="translate(-1081.889 -873.126)" fill="#eaeaea"/>
        </g>
        <g id="Group_968" data-name="Group 968" transform="translate(122.513 187.04)">
          <path id="Path_1923" data-name="Path 1923" d="M1043.752,933.716c-3.483-5.906-25.172-17.112-25.172-17.112-.029-.013-4.894-2.756-4.923-2.766-1.923,2.516-4.486,9.122-6.966,11.065,2.316,3.187,10.253,6.057,7.141,10.659-4.71,6.227-9.146,12.7-14.007,18.8a2.543,2.543,0,0,1-3.986-2.859c4.019-6.1,8.693-11.789,12.922-17.757-5.532-5.074-8.972-7.266-8.572-9.526.311-1.778,3.01-3.6,8.953-6.908.508-2.188-1.3-5.071-1.625-7.462-1.556-2.09-4.209-3.272-6.689-3.924q-1.518,9.817-2.873,17.921c-8.661,51.614-13.014,51.178-22-.059q-1.415-8.087-3-17.862c-2.483.648-5.149,1.838-6.7,3.937-.337,2.388-2.09,5.238-1.641,7.436,5.958,3.276,8.661,5.11,8.972,6.905.4,2.28-3.053,4.5-8.576,9.536,4.186,5.758,8.523,11.406,12.651,17.2,1.864,2.712-2.136,5.6-4.147,2.984q-6.815-9.188-13.6-18.4c-3.023-4.622,4.867-7.413,7.18-10.623-2.568-2.041-7.656-5.25-9.333-8.149,0,0-9.19-.556-11.977,6.01-.116.274-6.132,52.779-5.841,52.694.951-.278,13.614-6.808,13.526-5.025-1.209,24.378-4.032,55.695-4.666,78.818-.062,10.048-.356,16.041.584,23.666,13.515,4.032,29.359,3.78,43.355,3.619,10.109-.432,21.742-.32,31.448-3.415,1.071-6.643.019-15.276.265-22.306-.728-30.8-1.367-62.844-3.055-94.327l8.551,4.977Zm-59.259,47.073a3.307,3.307,0,0,1,2.768-2.293c5.29.246,4.678,11.2-1,9.447-.675-.1-.688-.6-1.12-.95-.855-.272-.577-1.366-1.074-1.979-.151-.206-.066-.57-.154-.838C983.484,982.934,984.388,981.916,984.493,980.789Zm5.123,30.64c-.694,1.025-3.4,1.317-4.006-.026-.042-.095-.1-.229-.183-.259-.849-.314-.046-1.4-.9-1.772a3.5,3.5,0,0,1-.35-2.7c-.324-.659.347-1.186.266-1.811.822-.672,2.408-3.4,3.567-2.244a1.927,1.927,0,0,1,2.175,1.736l-.128.059A5.925,5.925,0,0,1,989.616,1011.429Z" transform="translate(-939.934 -905.921)" fill="#fff"/>
        </g>
        <g id="Group_970" data-name="Group 970" transform="translate(166.609 283.452)">
          <path id="Path_1924" data-name="Path 1924" d="M1109.311,1282.006c-.848-.314-.046-1.4-.9-1.772a3.5,3.5,0,0,1-.35-2.7c-.324-.659.347-1.186.265-1.812.822-.672,2.408-3.4,3.568-2.244a1.927,1.927,0,0,1,2.175,1.736l-.128.059a5.925,5.925,0,0,1-.439,7.02c-.694,1.025-3.4,1.317-4.006-.026C1109.452,1282.17,1109.393,1282.036,1109.311,1282.006Z" transform="translate(-1107.914 -1273.194)" fill="#354458"/>
        </g>
        <g id="Group_971" data-name="Group 971" transform="translate(166.379 259.616)">
          <path id="Path_1925" data-name="Path 1925" d="M1108.384,1190.888c-.855-.272-.576-1.366-1.074-1.979-.151-.206-.066-.57-.154-.838-.432-1.242.472-2.26.576-3.387a3.308,3.308,0,0,1,2.768-2.293c5.29.246,4.677,11.2-1,9.447C1108.83,1191.736,1108.817,1191.235,1108.384,1190.888Z" transform="translate(-1107.04 -1182.391)" fill="#354458"/>
        </g>
        <g id="Group_972" data-name="Group 972" transform="translate(134.244 177.284)">
          <path id="Path_1926" data-name="Path 1926" d="M1039.942,897.859a.44.44,0,0,1,.07-.642c2.169-1.569,4.936-2.537,6.81-4.411l.038.013a23.269,23.269,0,0,0,.207-2.353,23.548,23.548,0,0,0-.524-4.421,35.812,35.812,0,0,0-1.052-4.287,12.744,12.744,0,0,1-.536-2.095,1.556,1.556,0,0,0-.564-.795c-3.133-2.8-9.046-7.311-13.286-5.156a.441.441,0,0,1-.638-.389c-.2-7.374-8.218-5.564-5.6,3.634a.36.36,0,0,1,.013.07c.144,1.71,1.474,2.561,2.4,3.683a.437.437,0,0,1,.079.385c-.333,1.35-.128,3.2-.845,4.26a.428.428,0,0,1-.3.176,47.35,47.35,0,0,1-8.083.374.425.425,0,0,1-.051-.005c-1.516-.251-3.623.085-4.913-.592a.444.444,0,0,1-.222-.334c-.782-5.538-1.4-2.638,1.427-6.654a.532.532,0,0,0,.061-.115c3.757-10.053-5.011-12.781-5.186-4.8a.442.442,0,0,1-.675.359c-3.817-2.256-10.259,2.223-13.13,4.989a.428.428,0,0,0-.04.043,5.749,5.749,0,0,0-1.183,2.375c-.049.2-.141.275-.367.269-8.766-.053-7.652,10.115-8.35,16.3q-.439,5.045-.87,10.093a2.956,2.956,0,0,0,5.889.528q.663-7.783,1.363-15.562a.439.439,0,0,1,.769-.25c1.784,2.084,4.8,3.031,7.041,4.663a.439.439,0,0,1,.069.639c-2.611,3.06-9.8,5.811-6.891,10.256q6.8,9.2,13.6,18.4c2.011,2.618,6.011-.272,4.147-2.984-4.049-5.688-8.3-11.231-12.413-16.877a.453.453,0,0,1,.063-.6c5.347-4.843,8.671-7.024,8.275-9.262-.308-1.775-2.954-3.589-8.776-6.8a.45.45,0,0,1-.233-.326c-.294-2.133,1.3-4.824,1.662-7.112a.426.426,0,0,1,.081-.193,11.677,11.677,0,0,1,6.141-3.716.45.45,0,0,1,.57.359q1.542,9.484,2.92,17.369c8.989,51.238,13.342,51.673,22,.059q1.327-7.9,2.8-17.422a.448.448,0,0,1,.561-.365,11.763,11.763,0,0,1,6.138,3.7.425.425,0,0,1,.082.2c.351,2.294,2,5.018,1.65,7.145a.452.452,0,0,1-.23.314c-5.811,3.239-8.456,5.043-8.764,6.8-.392,2.219,2.917,4.373,8.276,9.255a.453.453,0,0,1,.065.6c-4.158,5.837-8.724,11.421-12.664,17.391a.516.516,0,0,0-.047.088,2.547,2.547,0,0,0,3.97,2.845.53.53,0,0,0,.066-.069c4.849-6.085,9.276-12.544,13.977-18.758C1049.781,903.725,1042.562,900.9,1039.942,897.859ZM1025.57,892.1c-1.562,9.135-3.183,18.213-5.157,27.282a.44.44,0,0,1-.858.012c-1.4-5.728-4.985-23.787-5.4-27.317a.432.432,0,0,1,.473-.48,53.839,53.839,0,0,0,10.462-.008A.44.44,0,0,1,1025.57,892.1Z" transform="translate(-984.622 -868.751)" fill="#354458"/>
        </g>
        <g id="Group_973" data-name="Group 973" transform="translate(127.036 222.101)">
          <path id="Path_1927" data-name="Path 1927" d="M1026.7,1181.4a2.927,2.927,0,0,1,2.119-2.649c4.636-1.291,12.912-1.194,13.035-6.492-.147-10.1-.206-20.2-.5-30.3-1.006-33.26-5.974-99.776-5.974-99.776a2.945,2.945,0,0,0-3.088-2.7q-.083,0-.175.017a3.091,3.091,0,0,0-2.616,3.349c2.994,35.6,5.326,71,6.17,106.731-.222,6.344.741,13.346.143,19.535a2.933,2.933,0,0,1-2.118,2.537c-9.154,2.586-18.786,2.968-28.25,3.373-13.319.152-26.962.089-39.9-3.393a2.963,2.963,0,0,1-2.174-2.643c-.546-7.106.353-14.989.213-22.253.81-30.837,2.636-61.639,5.034-92.394a2.951,2.951,0,0,0-2.942-3.182h0a2.955,2.955,0,0,0-2.946,2.725c-2.793,35.926-4.812,71.92-5.334,107.953-.822,15.3-.308,14.275,14.3,17.233.714.118.622-.046.675.757q.732,11.87,1.5,23.745c1.339,14.03.948,28.886,3.325,42.521a2.956,2.956,0,0,1-.5,2.237c-3.524,4.9-13.99,18.842-8.484,21.252,9.334,4.3,20.07,3.427,29.937,1.667a2.922,2.922,0,0,1,.762-.037c8.683.734,17.551,2.651,26.244.387,3.03-.842,9.273-1.959,7.252-6.365-2.533-6.138-6.4-11.959-9.974-17.321a2.935,2.935,0,0,1-.411-2.317c2.106-8.754,1.236-18.462,2.347-27.489Q1025.56,1199.758,1026.7,1181.4Zm-31.622,2.461c-.023,18.927.354,37.932.586,56.882a2.945,2.945,0,0,1-2.543,2.962,43.051,43.051,0,0,1-7.52-.145,2.409,2.409,0,0,1-.525-.074,3.306,3.306,0,0,0-.386-.077,2.936,2.936,0,0,1-2.458-2.721c-.118-1.675-.242-3.351-.352-5.026q-1.742-26.116-3.363-52.251a2.955,2.955,0,0,1,3.123-3.133l10.665.634A2.947,2.947,0,0,1,995.083,1183.859Zm-20.167,78.064a68.515,68.515,0,0,1,7.47-11.366,2.952,2.952,0,0,1,2.127-1.073c2.245-.131,4.713.281,7.095.215a2.973,2.973,0,0,1,2.963,2.356c.728,3.309.963,7.107,1.46,10.646a2.952,2.952,0,0,1-2.52,3.34c-5.482.748-11.1,1.153-16.516.145A2.953,2.953,0,0,1,974.915,1261.923Zm31.965-81.013,10.657-.634a2.955,2.955,0,0,1,3.125,3.126c-1.023,17-2.154,34.008-3.27,51a2.681,2.681,0,0,1-.037.295c-.333,1.909-.067,4.253-.335,6.234a2.94,2.94,0,0,1-2.4,2.5,32.616,32.616,0,0,1-8.411.153,2.951,2.951,0,0,1-2.687-2.976c.214-18.939.618-37.851.582-56.757A2.948,2.948,0,0,1,1006.881,1180.909Zm15.255,85.279a52.425,52.425,0,0,1-16.179-.1,2.949,2.949,0,0,1-2.522-3.235c.385-3.606.527-7.5,1.236-10.856a2.931,2.931,0,0,1,2.954-2.315c2.336.072,4.741-.258,6.96-.213a2.971,2.971,0,0,1,2.229,1.085,67.45,67.45,0,0,1,7.418,11.352A2.949,2.949,0,0,1,1022.136,1266.188Z" transform="translate(-957.162 -1039.484)" fill="#354458"/>
        </g>
        <g id="Group_976" data-name="Group 976" transform="translate(199.828 266.857)">
          <path id="Path_1928" data-name="Path 1928" d="M1244.563,1238.192c-.437-6.193,1.1-12.216-1.364-18.173-.985-2.435-4.912-1.636-4.818.957a26.527,26.527,0,0,0,1.045,5.312,1.143,1.143,0,0,1-1.636-.1c-5.534-3.828-3.739-13.924,2.228-16.21,2.783,2.382,6.825,4.05,8.915,6.923C1251.81,1223.528,1254.739,1236.874,1244.563,1238.192Z" transform="translate(-1234.462 -1209.976)" fill="#f7f5f5"/>
        </g>
        <g id="Group_977" data-name="Group 977" transform="translate(204.015 213.049)">
          <path id="Path_1929" data-name="Path 1929" d="M1269.553,1005l-13.11,27.091,2.638,3.361-8.671,17.062s21.748,15.546,21.356,14.863,13.95-17.409,11.9-31.925S1269.553,1005,1269.553,1005Z" transform="translate(-1250.411 -1005)" fill="#fff"/>
        </g>
        <path id="Path_1930" data-name="Path 1930" d="M1254.305,962.593c-2.48-23.715-23.559-39.785-42.912-50.687a2.921,2.921,0,0,0-3.492,1.233c-2.216,4.923,7.893,7.157,10.709,10.062,27.015,17.06,40.655,43.678,19.737,71.948a150.953,150.953,0,0,1-15.991-10.95.781.781,0,0,1-.331-1.082c1.774-4.585,3.207-10.5,6.744-13.789,7.43-3.03-2.983-7.728-5.382-10.422a55.66,55.66,0,0,1-4.545-4.539,1.091,1.091,0,0,0-1.895.851c.261,2.239.635,4.463,1.086,6.676,1.709,1.531,3.439,3.011,5.031,4.494-2.872,5.875-7.681,13.247-7.352,19.747-8.553,6.7-8.747,23.988,3.674,25.883.333,7.973-.73,14.469,9.584,10.556,8.421-3.334,9.335-14.484,6.795-22.09,6.634,5.434,10.634-8.014,13.538-12.385C1253.115,980.018,1255.17,971.6,1254.305,962.593Zm-29.562,55.648c-.438-6.193,1.1-12.216-1.364-18.173-.985-2.436-4.913-1.636-4.818.957a26.568,26.568,0,0,0,1.045,5.312,1.143,1.143,0,0,1-1.635-.1c-5.534-3.828-3.739-13.924,2.228-16.21,2.783,2.382,6.824,4.05,8.914,6.923C1231.99,1003.576,1234.918,1016.922,1224.743,1018.24Z" transform="translate(-1014.813 -723.166)" fill="#354458"/>
        <path id="Path_1931" data-name="Path 1931" d="M810.436,720.294a15.42,15.42,0,0,1-6.116,2.994,23.116,23.116,0,0,0,4.432-6.368C809.345,718.106,809.872,719.161,810.436,720.294Z" transform="translate(-717.406 -579.492)" fill="#586174"/>
        <path id="Path_1932" data-name="Path 1932" d="M877.372,781.571c1.785-11.684-7.049-20.263-14.354-27.977a42.053,42.053,0,0,0,6.6.308,46.626,46.626,0,0,0,13.9,21.266A31.475,31.475,0,0,1,877.372,781.571Z" transform="translate(-760.696 -606.54)" fill="#586174"/>
        <path id="Path_1933" data-name="Path 1933" d="M1241.159,866.766a11.308,11.308,0,0,1-4.776-3.443c1.4-.629,2.715-1.219,4.127-1.854A12.893,12.893,0,0,0,1241.159,866.766Z" transform="translate(-1036.051 -686.096)" fill="#586174"/>
        <path id="Path_1934" data-name="Path 1934" d="M1290.764,773.642a46.816,46.816,0,0,0,13.836-21.3,21.662,21.662,0,0,0,7.446-.793c-8.16,7.7-15.943,15.847-15.8,27.908C1295.121,778.932,1291.819,775.427,1290.764,773.642Z" transform="translate(-1076.156 -605.03)" fill="#586174"/>
        <path id="Path_1935" data-name="Path 1935" d="M778.814,356.68c-1.284-16.663-6.26-4.619-18.255-8.694,28.324-20.935,4.625-54.051,66.96-82.166,22.543-10.819,50.258-8.314,69.083,8.664,6.754,4.006,13.672,7.672,19.238,13.374,19.362,18.485,22.124,47.323,18.884,72.572-5.67-9.224-9.345-19.448-12.864-29.635-.475-3.23-5.356-3.023-5.166.347,4.694,14.171,9.712,29.3,20.217,40.313-20.98,1.065-29.33-22.147-32.452-39.216-2.876-8.582.554-30.427-13.574-27.813-12.837-22.127-45.194,9.371-57.55,19.369-11.6,9.771-21.144,24.073-36.969,27.024,6.528-5.271,10.371-12.968,13.348-20.646.623-1.9,1.6-3.747,1.841-5.739A2.523,2.523,0,0,0,806.971,323c-3.99,9.706-7.593,22.366-18.56,26.159-3.036.852-9.925-.646-6.666,4.92A28.046,28.046,0,0,0,778.814,356.68Z" transform="translate(-685.133 -242.005)" fill="#586174"/>
        <path id="Path_1936" data-name="Path 1936" d="M1198.921,656.235c.455-6.335,6.037-1.841,3.564,2.27C1201,661.011,1198.583,658.341,1198.921,656.235Z" transform="translate(-1008.399 -532.411)" fill="#fff"/>
        <path id="Path_1937" data-name="Path 1937" d="M1016.853,656.268c.42-6.351,5.988-1.965,3.594,2.2C1019.038,661,1016.44,658.305,1016.853,656.268Z" transform="translate(-874.116 -532.405)" fill="#fff"/>
        <path id="Path_1938" data-name="Path 1938" d="M930.972,464.38c2.827.671,8.644,4.1,10.426.635.842-4.95-10.993-2.254-12.8-8.513a2.249,2.249,0,0,0-2.109-1.445C920.873,456.758,927.88,463.46,930.972,464.38Zm5.008,12.28c-7.74-1.733-10,9.394-7.046,14.74,4.832,8.844,13.227.852,12.293-6.692,2.66.134,7.125-4.229,3.043-5.493-2-.036-3.269,4.039-4.789.3,3.845-2.526,1.582-8.232-1.34-4.416C937.792,476.245,937.314,477.211,935.981,476.661Zm-27.643,22.408c-.16,2.824,4.262,3.331,3.842.242C912.232,496.275,908.41,495.9,908.338,499.069Zm-.652,17.19c5.7-3.2,11.4,4.927,14.066,3.226,4.134-4.442-7.786-8.271-10.98-8.268-3.748-.54-15.248,5.264-9.748,9.191C903.6,521.006,904.652,516.813,907.686,516.26ZM882.45,474.918c-3.161-3.377-4.815,2.024-1.31,4.684-1.487,4-3.341-1.589-5.5-.144-2.719,2.273,1.563,5.218,3.931,5.257-1.3,7.92,7.963,15.582,12.392,6.23,2.686-5.349.16-16.28-7.455-14.226C883.21,477.273,882.82,475.865,882.45,474.918Zm2.29-14.049a2.171,2.171,0,0,0,.96,4.2c4.35-.216,19.179-6.653,13.7-12.041-3.253-1.219-3.7,4.969-7.75,5.664C889.359,459.447,887.062,460.227,884.74,460.869Zm-29.068,44.742c-1.49-4.861-7.652-1.215-11.216-2.87-8.124-1.9-9.385-18.15-3.947-23.129,1.68-1.648,3.177-1.664,5.067-.318,3,2.607-.845,11.678,5.346,11.134,4.638-1.412.589-10.551,1.14-14.446,12.074-1.7,21.969-9.7,30.26-18.134A201.39,201.39,0,0,1,919.8,427.16c2.391-1.009,4.756,1.313,5.657,3.4,3.944,3.767,7.3-1.949,1.2-6.846a26.966,26.966,0,0,1,4.1-1.454,6.9,6.9,0,0,1,1.251,6.509c.377,6.882,8.53,2.332,4.429-7.095,5.307-.036,5.6,6.034,9.408,8.1,1.284.534,2.414-.36,3.577-.783,5,.672,4.042,11.15,5.084,15.133,1.966,13.627,4.953,27.718,13.08,39.131.629,1.235-.183,2.794-.144,4.137a2.98,2.98,0,0,0,5.509,1.834,33.1,33.1,0,0,0,6.574,4.294c.613.292.606.3.573.96-.089,3.96-2.074,8.2-6.437,8.582-2.971.721-7.616-1.674-8.638,2.483-5.778,23.86-31.4,33.339-53.73,33.192C888.451,539.216,861.7,530.162,855.672,505.611Z" transform="translate(-741.662 -361.746)" fill="#eaeaea"/>
        <path id="Path_1939" data-name="Path 1939" d="M1189.931,634.366c2.473-4.111-3.108-8.605-3.564-2.27C1186.029,634.2,1188.444,636.872,1189.931,634.366Zm-6.813,3.561c-2.958-5.346-.694-16.473,7.046-14.74,1.333.55,1.811-.416,2.162-1.559,2.922-3.816,5.185,1.89,1.34,4.416,1.52,3.737,2.791-.338,4.789-.3,4.081,1.264-.383,5.627-3.043,5.493C1196.345,638.778,1187.949,646.771,1183.117,637.927Z" transform="translate(-995.844 -508.271)" fill="#354458"/>
        <path id="Path_1940" data-name="Path 1940" d="M1175.855,558.182c-3.092-.92-10.1-7.622-4.488-9.322a2.249,2.249,0,0,1,2.109,1.445c1.812,6.26,13.646,3.564,12.8,8.513C1184.5,562.279,1178.682,558.853,1175.855,558.182Z" transform="translate(-986.545 -455.547)" fill="#354458"/>
        <path id="Path_1941" data-name="Path 1941" d="M1108.156,710.306c.073-3.171,3.9-2.794,3.843.242C1112.418,713.637,1108,713.129,1108.156,710.306Z" transform="translate(-941.48 -572.982)" fill="#354458"/>
        <path id="Path_1942" data-name="Path 1942" d="M1082.854,767.745c-3.033.554-4.088,4.746-6.663,4.15-5.5-3.927,6-9.732,9.748-9.191,3.194,0,15.114,3.826,10.98,8.268C1094.253,772.672,1088.553,764.545,1082.854,767.745Z" transform="translate(-916.83 -613.233)" fill="#354458"/>
        <path id="Path_1943" data-name="Path 1943" d="M1015.252,552.709a2.171,2.171,0,0,1-.96-4.2c2.322-.642,4.619-1.421,6.908-2.181,4.055-.695,4.5-6.882,7.75-5.664C1034.431,546.056,1019.6,552.493,1015.252,552.709Z" transform="translate(-871.214 -449.391)" fill="#354458"/>
        <path id="Path_1944" data-name="Path 1944" d="M989.9,632.182c-.412,2.037,2.185,4.737,3.594,2.2C995.893,630.217,990.324,625.831,989.9,632.182Zm-8.762-6.152c2.162-1.445,4.016,4.141,5.5.144-3.5-2.66-1.851-8.061,1.31-4.684.37.947.76,2.355,2.054,1.8,7.616-2.054,10.141,8.877,7.456,14.226-4.429,9.352-13.7,1.69-12.392-6.23C982.705,631.249,978.424,628.3,981.142,626.031Z" transform="translate(-847.167 -508.32)" fill="#354458"/>
        <path id="Path_1945" data-name="Path 1945" d="M889.889,374.853a46.818,46.818,0,0,1-13.836,21.3c1.055,1.785,4.356,5.29,5.486,5.814-.147-12.061,7.635-20.207,15.8-27.908A21.659,21.659,0,0,1,889.889,374.853Zm-28.112,29.916a11.308,11.308,0,0,0,4.776,3.443,12.9,12.9,0,0,1-.649-5.3C864.492,403.551,863.176,404.14,861.777,404.769ZM763.767,374.6c7.3,7.714,16.139,16.293,14.354,27.977a31.482,31.482,0,0,0,6.142-6.4,46.627,46.627,0,0,1-13.9-21.266A42.04,42.04,0,0,1,763.767,374.6Zm.472-6.06c3.564,1.654,9.726-1.992,11.216,2.87,6.031,24.551,32.779,33.6,55.624,33.126,22.33.147,47.952-9.332,53.73-33.192,1.022-4.157,5.667-1.763,8.638-2.483,4.363-.383,6.348-4.622,6.437-8.582.033-.662.039-.668-.573-.96a33.092,33.092,0,0,1-6.574-4.294,2.98,2.98,0,0,1-5.509-1.834c-.039-1.343.773-2.9.144-4.137-8.127-11.412-11.114-25.5-13.08-39.131-1.042-3.983-.085-14.462-5.084-15.133-1.163.423-2.293,1.317-3.577.783-3.8-2.07-4.1-8.14-9.408-8.1,4.1,9.427-4.052,13.977-4.429,7.095a6.9,6.9,0,0,0-1.251-6.508,26.947,26.947,0,0,0-4.1,1.454c6.1,4.9,2.748,10.613-1.2,6.846-.9-2.084-3.266-4.406-5.657-3.4a201.4,201.4,0,0,0-37.48,30.689c-8.291,8.438-18.186,16.437-30.26,18.134-.55,3.895,3.5,13.034-1.14,14.446-6.191.544-2.342-8.526-5.346-11.134-1.89-1.346-3.387-1.33-5.068.318C754.854,350.387,756.115,366.641,764.238,368.537Zm-15.88,2.8a15.421,15.421,0,0,0,6.116-2.994c-.563-1.133-1.091-2.188-1.684-3.374A23.124,23.124,0,0,1,748.358,371.338Zm-12.372.668c3.574-1.11,7.075-2.322,9.588-5.284,2.195-2.863,4.805-6.761,3.692-10.449a117.956,117.956,0,0,1-3.977-16.83c-4.088.184-21.583-1.133-15.625-7.429a49.658,49.658,0,0,0,9.391-6.974c5.391-5.424,7.7-13.044,9.476-20.286,5.081-18.645,16.106-35.816,32.37-46.553,24.567-17.4,58.916-26.68,85.789-8.972,20.384,13.591,38.184,22.605,46.019,47.919,4.081,12.31,5.064,25.422,4.422,38.315a155.375,155.375,0,0,1-1.546,15.5c.19,2.761,4.419,4.638,6.948,4.887a2.48,2.48,0,0,1,1.975,2.123c.023,4.694-7.914,3.528-11.153,4.186-5.85,7.2-10.348,16.342-18.065,22.307-5.549,5.421-10.014,14.236-5.709,21.665a3.334,3.334,0,0,1,.452,2.463c-3.492,7.036-14.213-3.357-17.253-6.908-3.223,3.42,1.651,6.98,1.87,10.439-1.49,7.4-16.811-.563-18.724-5.313-21.956,6-47.218,5.094-66.967-7.052-1.9,4.2-19.336,18.245-18.638,7.052A13.983,13.983,0,0,0,771.6,394.8c-2.8-8.667-11.164-13.5-15.835-21C752.78,376.969,729.183,380.693,735.986,372.006Zm67.845-120.648c-62.335,28.115-38.636,61.231-66.96,82.166,12,4.075,16.971-7.97,18.255,8.694a28.046,28.046,0,0,1,2.932-2.6c-3.259-5.565,3.629-4.068,6.666-4.92,10.967-3.793,14.57-16.454,18.559-26.159a2.524,2.524,0,0,1,4.586,1.438c-.246,1.992-1.219,3.842-1.841,5.739-2.977,7.678-6.82,15.376-13.348,20.646,15.825-2.951,25.37-17.253,36.969-27.024,12.356-10,44.712-41.5,57.549-19.369,14.128-2.614,10.7,19.231,13.574,27.813,3.122,17.069,11.471,40.28,32.452,39.216-10.5-11.016-15.523-26.143-20.217-40.313-.19-3.371,4.691-3.577,5.166-.347,3.518,10.187,7.193,20.41,12.863,29.634,3.24-25.249.478-54.087-18.884-72.572-5.565-5.7-12.483-9.368-19.238-13.374C854.089,243.045,826.374,240.539,803.831,251.358Z" transform="translate(-661.444 -227.542)" fill="#2d255f"/>
        <g id="Group_999" data-name="Group 999" transform="translate(151.357 45.801)">
          <path id="Path_1946" data-name="Path 1946" d="M1049.812,367.891l.171.026C1049.952,367.875,1049.9,367.854,1049.812,367.891Z" transform="translate(-1049.812 -367.872)" fill="#2f4155"/>
        </g>
        <g id="Group_1000" data-name="Group 1000" transform="translate(182.45 39.296)">
          <path id="Path_1947" data-name="Path 1947" d="M1168.26,343.106a.267.267,0,0,0,.038-.015C1168.273,343.094,1168.264,343.1,1168.26,343.106Z" transform="translate(-1168.26 -343.091)" fill="#2f4155"/>
        </g>
        <g id="Group_1001" data-name="Group 1001" transform="translate(157.355 46.821)">
          <path id="Path_1948" data-name="Path 1948" d="M1072.685,371.757l-.006,0c0,.015-.012.025-.015.039Z" transform="translate(-1072.664 -371.757)" fill="#2f4155"/>
        </g>
        <g id="Group_1002" data-name="Group 1002" transform="translate(147.543 37.94)">
          <path id="Path_1949" data-name="Path 1949" d="M1039.9,349.558a6.871,6.871,0,0,1,.891-.438c.264-.108.518-.171.757-.254a4.462,4.462,0,0,0,.727-.306,5.4,5.4,0,0,0,.849-.54c.17-.085.337-.181.5-.284s.338-.2.5-.3c.334-.207.655-.436.98-.626.146-.525.892-.42,1.134-.916l.247.152c.088-.165.216-.306.4-.245l.018.067c.133-.249.4-.245.469-.37l.017.068.234-.131-.006.108a1.575,1.575,0,0,1,1.012-.5l-.126-.258c.8.034.879-.6,1.642-.455l.012.069a.889.889,0,0,1,1.024-.439.984.984,0,0,0,1.063-.4c-.084.113.085.13.094.2.373-.18.784-.329.654-.874.293-.067.28.109.369.309-.06-.236.166-.406.393-.47l-.083.116.637-.228-.232-.423c.38.052.213.532.523.347l-.087-.374c.5-.038.905.474,1.425.665a18.3,18.3,0,0,0,2.933-.761,5.2,5.2,0,0,1,2.888-.192l.1.283c.06.419.454-.656.546-.268l.2-.2c.062.072.189.148.089.247.193.008.195-.063.329-.194l.213.257c.749.186,1.389-.317,2.173-.166a3.467,3.467,0,0,0,1.784.375c.675.011,1.384-.037,1.9-.045a2.571,2.571,0,0,1,2.017.912,3.342,3.342,0,0,0,1.858,1.141c0,.075.173.028.2-.012.17.126.339.251.5.389s.321.268.47.412l.192.161c.116.1.278.246.47.4a10.987,10.987,0,0,0,1.267.982c.43.266.875.4,1.238.083.336-.317.68-1.131.348-2.853l.094-.029a3.143,3.143,0,0,0-.691-.941,1.438,1.438,0,0,0-.933-.356c.289-.509-.537-.5-.591-.766l.043-.025c-.348.015-.524-.207-.7-.445s-.368-.46-.69-.426c.04-.029.128-.158.236-.1-.369-.134-.883-.266-.759-.572-.846-.354-1.993-.97-2.708-.638l.066-.074c-.417.23-.417-.079-.816-.01-.007-.047-.025-.076-.017-.092-.429.239-1-.207-1.313-.114l.027-.218c-.23-.034-.46-.061-.691-.082l.246.091c-.194.581-.45-.472-1.01-.152-.227-.073-.5.209-.763.47s-.511.493-.73.329c-.242.263.231-.441-.118-.251.012-.314.171-.184.1-.441-.34.119-.527-.353-.95-.164l-.008-.245c-.548.429-1.016-.341-1.376.087-.545.215-.39-.721-.953-.222l-.239-.32c-.252-.041-.158.41-.439.269,0-.209-.356-.143-.208-.351-.654-.285-1.216.557-2.078.1-.129.422-.561.231-.651.551-.044-.174-.807.078-.408-.362.035-.036.1-.039.109.03l.023-.245c-.521-.387-.8.359-1.253.364.145.057.318.007.225.19l-.42.035.055-.214-.64-.016.127.233c-.324-.077-.505-.482-.787-.071-.119.224.345.277.041.416a6.877,6.877,0,0,0-1.62-.2c.105.266-.036.283-.166.373l-.067-.236c-.474.454-.314-.481-.8-.1l.01-.177-.031.531c-.378.584-.382-.44-.769.336.2-.1.226.5-.058.462l.01-.246c-.133.085-.157.193-.265.171.055-.146-.038-.345-.241-.251l.071-.323-.3.524c-.375-.165-.786.266-1-.012,0,0-.713.038-.761.432.07-.256-.323-.232-.295-.517-.1.294-.546.647-.831.459l.029-.042c-.842-.014-1.163.776-1.938.712.128.255-.277.24-.063.548-.551.577-1.518-.2-1.335.938-.28.182-.463-.093-.644-.08l.05-.085a6.265,6.265,0,0,1-1.124.587c-.164.2.027.683-.4.741.03-.242-.1-.137-.244-.072.075-.07.069-.154-.174-.189a.369.369,0,0,1-.041.175c-.009-.014-.021-.022-.028-.043-.2.184-.127.22-.009.192a.185.185,0,0,0,.094.1c-.357-.117-.65.356-.842.055-.658.419-.949,1.033-1.431,1.465-.156-.122-.109-.336.018-.491l-.362.285c-.132-.228.151-.261.246-.377-.7-.1-.742.941-1.486.955l0,.246-.051-.008a.409.409,0,0,1-.034.373c-.2-.14-.291-.448-.545-.256-.331-.036-.521.507-.713.8.166-.071.194.066.18.175-.123.1-.332-.035-.373.115l-.2-.24c.221.2-.146.5-.11.637-.21-.126.071-.31,0-.471l-.723.626c-.119.392.23.191.274.5-.19.235-.286.564-.654.651l.257.139a1.121,1.121,0,0,1-1,.753,4.612,4.612,0,0,0-.307,2.283.827.827,0,0,0,.614.723,1.941,1.941,0,0,0,1.2-.219,2.932,2.932,0,0,0,.476-.24,2.422,2.422,0,0,0,.387-.265,3.108,3.108,0,0,0,.573-.666c.167-.252.349-.507.551-.8A5.147,5.147,0,0,1,1039.9,349.558Z" transform="translate(-1035.282 -337.922)" fill="#2f4155"/>
        </g>
        <g id="Group_1004" data-name="Group 1004" transform="translate(181.051 22.289)">
          <path id="Path_1950" data-name="Path 1950" d="M1162.933,278.3l.043.123A.112.112,0,0,0,1162.933,278.3Z" transform="translate(-1162.933 -278.305)" fill="#2f4155"/>
        </g>
        <g id="Group_1005" data-name="Group 1005" transform="translate(193.729 30.176)">
          <path id="Path_1951" data-name="Path 1951" d="M1211.227,308.351a.192.192,0,0,0,.029,0A.039.039,0,0,0,1211.227,308.351Z" transform="translate(-1211.227 -308.347)" fill="#2f4155"/>
        </g>
        <g id="Group_1006" data-name="Group 1006" transform="translate(182.273 26.488)">
          <path id="Path_1952" data-name="Path 1952" d="M1167.61,294.3h0l-.02.025Z" transform="translate(-1167.588 -294.3)" fill="#2f4155"/>
        </g>
        <g id="Group_1007" data-name="Group 1007" transform="translate(177.771 22.06)">
          <path id="Path_1953" data-name="Path 1953" d="M1152.611,281.088a1.7,1.7,0,0,1,.675.457.8.8,0,0,0,.708.218,2.86,2.86,0,0,0,.964.1c.264-.372.389.121.665-.158l-.01.246c.095-.093.191-.146.206-.006l-.026.063c.146-.139.207-.006.281-.075l-.028.063.116.007-.052.085a.323.323,0,0,1,.476.068l.1-.269c.163.419.507-.077.614.381l-.033.061c.326-.276.4-.086.467.1s.127.374.461.146c-.083.057-.052.139-.089.2.189.007.371.055.652-.431.111.066,0,.2-.089.4.122-.213.267-.241.361-.2l-.087.057.286.082.194-.425c.063.2-.264.5-.08.485l.2-.326c.144.18-.066.735-.058,1.074a2.789,2.789,0,0,0,1.177.537,1.138,1.138,0,0,1,.851.893l-.171.233c-.276.312.576-.3.33,0l.2-.074c-.035.072-.054.168-.151.2.046.07.1.023.228-.025l-.123.248c.073.373.653.206.791.549a.671.671,0,0,0,.372.73,4.663,4.663,0,0,0,.832.413.451.451,0,0,1,.382.339,2,2,0,0,1,0,.6c-.046.428-.067.806.376.93-.044.046.1.033.141.011l.2.549s.017.04.051.105l.142.254a1.5,1.5,0,0,0,.567.575,1.178,1.178,0,0,0,1.054.012,3.626,3.626,0,0,0,1.543-1.55l.091-.017a.9.9,0,0,0-.032-.538.6.6,0,0,0-.5-.23c.5-.276-.088-.318.037-.479l.046-.012c-.5-.02.1-.618-.35-.647.043-.013.185-.084.217-.04-.147-.117-.378-.254-.1-.428-.287-.308-.448-.9-1.036-.82l.086-.036c-.38.077-.154-.126-.4-.158.031-.031.042-.054.058-.062-.38.071-.314-.346-.51-.363l.171-.137-.226-.228.032.125c-.5.332.161-.427-.3-.36-.083-.218-1.24.468-1.148.121-.279.107.4-.23.142-.205.234-.21.2-.073.359-.268-.21-.018.077-.4-.2-.409l.176-.17c-.5.119-.1-.561-.521-.387-.323-.04.393-.635-.136-.49l.156-.312c-.046-.123-.341.232-.321.025.149-.145,0-.238.188-.327,0-.445-.761-.053-.693-.726-.327.253-.319-.059-.561.134.105-.144-.279-.276.13-.432.034-.012.056.015.011.067l.172-.169c.113-.5-.483-.055-.612-.244,0,.1.087.138-.06.234l-.144-.148.156-.136-.177-.279-.114.227c-.043-.192.161-.571-.183-.383-.176.117-.082.359-.253.33a1.983,1.983,0,0,0-.344-.838c-.134.249-.186.2-.277.214l.125-.21c-.413.142.2-.508-.174-.426l.111-.132-.33.4c-.456.286.149-.506-.419-.08.111.021-.232.491-.286.332l.146-.187c-.086,0-.156.079-.173.014.1-.09.191-.287.077-.3l.21-.223-.393.283c-.015-.295-.383-.13-.284-.454a.272.272,0,0,0-.457-.013c.162-.171.036-.335.2-.548-.194.187-.511.256-.492-.027l.031-.02c-.242-.41-.758.086-.941-.361-.093.268-.2.054-.3.408-.44.189-.346-.914-.844.094-.167.007-.088-.308-.148-.39l.055-.044a1.165,1.165,0,0,1-.6-.122c-.138.07-.3.558-.452.392.118-.184.031-.166-.04-.185.054-.02.089-.089.034-.247a.432.432,0,0,1-.089.118.255.255,0,0,1,.011-.05c-.138.04-.134.108-.087.149a.338.338,0,0,0-.016.13c-.051-.289-.342-.069-.269-.417-.381-.005-.709.27-1.029.361a.453.453,0,0,1,.205-.387l-.226.029c.052-.259.152-.128.229-.168-.178-.462-.6.328-.833-.105l-.094.2-.012-.037a.489.489,0,0,1-.152.274c-.008-.234.079-.523-.071-.534-.088-.244-.35.06-.516.174.078.045.037.17-.007.247-.074,0-.093-.23-.159-.137l.023-.309c0,.293-.224.3-.262.422-.023-.232.131-.187.166-.358l-.453.007c-.174.22.009.294-.083.559-.141.05-.282.255-.429.056l.038.278c-.259.2-.4.181-.57-.1a3.555,3.555,0,0,0-.786,1.428,1.7,1.7,0,0,0,.006.945,1.3,1.3,0,0,0,.446.688.526.526,0,0,0,.762.1A3.151,3.151,0,0,1,1152.611,281.088Z" transform="translate(-1150.435 -277.433)" fill="#2f4155"/>
        </g>
        <g id="Group_1012" data-name="Group 1012" transform="translate(74.338 198.556)">
          <path id="Path_1954" data-name="Path 1954" d="M811.489,953.3l-12.2,20.035-21.67-23.545-21.21,23.545s22.461,37.967,41.093,36.181a21.14,21.14,0,0,0,11.6-4.339Z" transform="translate(-756.412 -949.791)" fill="#fff"/>
        </g>
        <g id="Group_1015" data-name="Group 1015" transform="translate(5.588 35.855)">
          <g id="Group_1013" data-name="Group 1013" transform="translate(67.066 151.923)">
            <path id="Path_1955" data-name="Path 1955" d="M759.186,922.373c-2.768.829-5.441,1.628-8.2,2.457-.334-1.232-.648-2.391-.989-3.652,3.774-2.149,5.224-7.691,2.041-11.068.124-.38.262-.8.449-1.379C755.691,916.562,756.628,908.979,759.186,922.373Z" transform="translate(-749.998 -908.73)" fill="#eaeaea"/>
          </g>
          <g id="Group_1014" data-name="Group 1014">
            <path id="Path_1956" data-name="Path 1956" d="M576.8,373.932a41.1,41.1,0,0,1-26.677,35.462c-4.071,2.221.2,7.079.36,10.443,3.872,14.531,7.852,29.016,11.664,43.566a5.391,5.391,0,0,0-4.691,1.169c-1.336-2.244-3.944-3.262-5.382-5.241-3.937-15.068-8.074-30.083-11.914-45.178-.514-2.342-2.29-2.516-4.291-1.919-23.467-.141-43.54-20.948-41.168-44.608C500.482,313.5,579.349,319.635,576.8,373.932Z" transform="translate(-494.513 -329.987)" fill="#eaeaea"/>
          </g>
        </g>
        <g id="Group_1023" data-name="Group 1023" transform="translate(56.069 167.766)">
          <g id="Group_1016" data-name="Group 1016" transform="translate(26.572 36.327)">
            <path id="Path_1957" data-name="Path 1957" d="M791.1,971.022c-.694.77-1.389,1.537-2.162,2.391-.321-.586-.59-1.074-.9-1.641l2.974-.888C791.048,970.931,791.077,970.977,791.1,971.022Z" transform="translate(-788.044 -970.885)" fill="#eaeaea"/>
          </g>
          <g id="Group_1017" data-name="Group 1017" transform="translate(8.089 24.97)">
            <path id="Path_1958" data-name="Path 1958" d="M718.881,929.2a8.972,8.972,0,0,0,6.492-1.582C726.8,934.835,713.62,931.386,718.881,929.2Z" transform="translate(-717.634 -927.622)" fill="#eaeaea"/>
          </g>
          <g id="Group_1018" data-name="Group 1018" transform="translate(5.728 19.094)">
            <path id="Path_1959" data-name="Path 1959" d="M717.671,905.387c-1.762,6.076-11.891,1.13-8.248-.151C712.2,905.891,714.828,905.593,717.671,905.387Z" transform="translate(-708.639 -905.236)" fill="#eaeaea"/>
          </g>
          <g id="Group_1019" data-name="Group 1019" transform="translate(3.384 11.357)">
            <path id="Path_1960" data-name="Path 1960" d="M710.307,879.339c-3.554.2-9.516.9-10.6-3.577C704.633,877.348,707.332,873.361,710.307,879.339Z" transform="translate(-699.71 -875.762)" fill="#eaeaea"/>
          </g>
          <g id="Group_1020" data-name="Group 1020">
            <path id="Path_1961" data-name="Path 1961" d="M692.1,839.769c-3.338-.6-7.812-4.763-3.518-7.269C691.927,833.384,700.689,840.765,692.1,839.769Z" transform="translate(-686.82 -832.5)" fill="#eaeaea"/>
          </g>
          <g id="Group_1021" data-name="Group 1021" transform="translate(23.014 2.958)">
            <path id="Path_1962" data-name="Path 1962" d="M781.316,846.556c-1.454-.72-6.414-1.317-6.823-2.787C777.009,844,780.012,844.017,781.316,846.556Z" transform="translate(-774.493 -843.768)" fill="#eaeaea"/>
          </g>
          <g id="Group_1022" data-name="Group 1022" transform="translate(15.231 5.783)">
            <path id="Path_1963" data-name="Path 1963" d="M764.1,879.832c-.959,1.065-1.91,2.113-2.905,3.214-.629-3.282-2.643-6.551-2.437-9.679a2.226,2.226,0,0,0-1.969-3.528c-6.286-1.307-1.762-5.287-5.5-6.571-3.266-.94-6.745-4.01-6.423-7.711.072-.577.177-1.137.891-1.009,3.459-.154,14.832,8.114,14.724,1.392l.128-.059C771.335,869.989,756.306,872.826,764.1,879.832Z" transform="translate(-744.84 -854.529)" fill="#eaeaea"/>
          </g>
        </g>
        <g id="Group_1025" data-name="Group 1025" transform="translate(0 29.581)">
          <path id="Path_1964" data-name="Path 1964" d="M588.683,508.653c5.994-12.281,12.821-24.335,22.372-34.237a2.7,2.7,0,0,0,.17-3.8c-4.632-4.416-17.944,19.2-20.5,23-3.23-3.256-20.325-25.573-23.853-21.478-2.306-1.513,3.407-7.265,1.464-13.679-1.749-7.947-7.423-16.5-16.522-15.6-.947.029-.8-.02-1.006-.776-4.062-15.235-8.238-30.444-12.218-45.7,51.886-22.812,26.683-101.027-29.11-89.055-54.156,13.748-45.184,91.39,10.61,93.2,3.465,13.027,6.918,26,10.384,39.026-6.932.36-7.3,10.253-2.231,13.508-.8,2.942.75,6.214,2.876,8.294-1.127,3.217-.219,5.808,2.542,7.8-2.84,4.923,2.614,8.867,7.18,9.008,1.952,8.324,2.584,7.108,10.017,4.868.753,1.415,1.484,2.784,2.208,4.147-2.162,3.767-11.242,8.726-8.523,13.286a168.062,168.062,0,0,0,16.381,20.673c13.676,15.6,34.945,24.639,48.509,3.57,2.129-2.679-1.684-6.355-4.239-4.078-2.07,2.571-3.9,5.336-6.626,7.3-18.789,12.984-38.138-16.1-48.008-29.2,6.066-6.692,12.11-13.355,18.209-20.08,6.237,6.715,14.658,13.207,18.583,21.249-1.078,2.192-2.264,4.344-3.227,6.584A2.546,2.546,0,0,0,588.683,508.653Zm-29.55-58.634c-1.454-.721-6.413-1.317-6.823-2.788C554.826,447.467,557.829,447.48,559.133,450.019Zm-34.669-53.491c-.514-2.342-2.289-2.516-4.291-1.92C496.706,394.468,476.633,373.661,479,350c5.778-54.126,84.645-47.991,82.1,6.306a41.1,41.1,0,0,1-26.677,35.462c-4.071,2.221.2,7.079.361,10.443,3.871,14.531,7.852,29.016,11.664,43.566a5.392,5.392,0,0,0-4.691,1.17c-1.336-2.244-3.944-3.262-5.382-5.241C532.44,426.638,528.3,411.622,524.464,396.528Zm6.6,47.746c3.341.884,12.1,8.264,3.518,7.268C531.241,450.943,526.767,446.779,531.061,444.273Zm1.618,11.356c4.923,1.586,7.622-2.4,10.6,3.577C539.722,459.4,533.76,460.1,532.679,455.63Zm3.128,7.737c2.774.655,5.4.357,8.248.151C542.293,469.594,532.165,464.648,535.807,463.367Zm2.823,7.459a8.972,8.972,0,0,0,6.492-1.582C546.552,476.457,533.37,473.007,538.631,470.826Zm8.238,9.558c-.334-1.232-.648-2.391-.989-3.652,3.774-2.149,5.225-7.691,2.041-11.069.124-.38.262-.8.449-1.379,3.2,7.832,4.14.249,6.7,13.643C552.3,478.756,549.627,479.555,546.869,480.384Zm9.9,2.745c-.321-.586-.59-1.074-.9-1.641l2.974-.888c.03.046.059.092.085.138C558.233,481.507,557.538,482.274,556.765,483.129Zm7.019-7.77c-.959,1.065-1.91,2.113-2.905,3.214-.629-3.282-2.643-6.551-2.437-9.679a2.226,2.226,0,0,0-1.969-3.528c-6.286-1.307-1.762-5.287-5.5-6.571-3.266-.94-6.744-4.01-6.423-7.711.072-.577.177-1.137.891-1.009,3.459-.154,14.832,8.114,14.724,1.392l.128-.059C571.02,465.516,555.992,468.353,563.784,475.359Z" transform="translate(-473.226 -306.087)" fill="#354458"/>
        </g>
        <g id="Group_1026" data-name="Group 1026" transform="translate(20.733 51.066)">
          <path id="Path_1965" data-name="Path 1965" d="M570.586,416.115c-5.113-4.41-24.405-9.13-16.5-18.007,4.8-4.934,16.519,6.032,21.875,8.317,4.441-5.166,8.313-23.863,17.451-17,5.6,5.317-5.688,16.544-7.682,22.523,4.976,4.377,23.013,8.872,18.525,17.175-4.881,8.143-17.752-5.228-23.982-7.381-4.362,5.181-8.929,24.882-17.871,17.842C556.655,434.478,568.57,422.12,570.586,416.115Z" transform="translate(-552.208 -387.932)" fill="#392f77"/>
        </g>
        <g id="Group_1034" data-name="Group 1034" transform="translate(286.412)">
          <g id="Group_1033" data-name="Group 1033" clip-path="url(#clip-path-3)">
            <g id="Group_1029" data-name="Group 1029" transform="translate(-15.126 -156.82)">
              <rect id="Rectangle_252" data-name="Rectangle 252" width="202.628" height="228.958" transform="matrix(0.206, -0.979, 0.979, 0.206, 0, 198.284)" fill="#fcba12"/>
              <rect id="Rectangle_253" data-name="Rectangle 253" width="202.628" height="228.958" transform="matrix(0.206, -0.979, 0.979, 0.206, 0, 198.284)" fill="#fcba12"/>
            </g>
            <g id="Group_1030" data-name="Group 1030" transform="translate(-56.858 41.464)">
              <rect id="Rectangle_254" data-name="Rectangle 254" width="202.628" height="228.958" transform="matrix(0.206, -0.979, 0.979, 0.206, 0, 198.284)" fill="#fcba12"/>
              <rect id="Rectangle_255" data-name="Rectangle 255" width="202.628" height="228.958" transform="matrix(0.206, -0.979, 0.979, 0.206, 0, 198.284)" fill="#fcba12"/>
            </g>
            <g id="Group_1031" data-name="Group 1031" transform="translate(-15.126 -156.82)">
              <rect id="Rectangle_256" data-name="Rectangle 256" width="202.628" height="228.958" transform="matrix(0.206, -0.979, 0.979, 0.206, 0, 198.284)" fill="#fcba12"/>
              <rect id="Rectangle_257" data-name="Rectangle 257" width="202.628" height="228.958" transform="matrix(0.206, -0.979, 0.979, 0.206, 0, 198.284)" fill="#fcba12"/>
            </g>
            <g id="Group_1032" data-name="Group 1032" transform="translate(-56.858 41.464)">
              <rect id="Rectangle_258" data-name="Rectangle 258" width="202.628" height="228.958" transform="matrix(0.206, -0.979, 0.979, 0.206, 0, 198.284)" fill="#fcba12"/>
              <rect id="Rectangle_259" data-name="Rectangle 259" width="202.628" height="228.958" transform="matrix(0.206, -0.979, 0.979, 0.206, 0, 198.284)" fill="#fcba12"/>
            </g>
          </g>
        </g>
        <g id="Group_1038" data-name="Group 1038" transform="translate(290.185 3.605)">
          <g id="Group_1037" data-name="Group 1037" clip-path="url(#clip-path-4)">
            <g id="Group_1035" data-name="Group 1035" transform="translate(-18.899 -160.427)">
              <rect id="Rectangle_260" data-name="Rectangle 260" width="202.628" height="228.958" transform="matrix(0.206, -0.979, 0.979, 0.206, 0, 198.284)" fill="#fcba12"/>
              <rect id="Rectangle_261" data-name="Rectangle 261" width="202.628" height="228.958" transform="matrix(0.206, -0.979, 0.979, 0.206, 0, 198.284)" fill="#fcba12"/>
            </g>
            <g id="Group_1036" data-name="Group 1036" transform="translate(-60.631 37.857)">
              <rect id="Rectangle_262" data-name="Rectangle 262" width="202.628" height="228.958" transform="matrix(0.206, -0.979, 0.979, 0.206, 0, 198.284)" fill="#fcba12"/>
              <rect id="Rectangle_263" data-name="Rectangle 263" width="202.628" height="228.958" transform="matrix(0.206, -0.979, 0.979, 0.206, 0, 198.284)" fill="#fcba12"/>
            </g>
          </g>
        </g>
        <path id="Path_1968" data-name="Path 1968" d="M1708.817,283.613a.709.709,0,0,0,.093.27c.334.541.837,1.069.559,1.745a2.506,2.506,0,0,1-1.874,1.475,20.73,20.73,0,0,1-2.174.321,14.54,14.54,0,0,0-1.633.175c-.706.161-1.387.429-1.934.6-1.09,1.968-2.107,3.795-3.073,5.529-.08,1.586-.172,3.126-.243,4.666a4.947,4.947,0,0,1-1.724,3.338,12.663,12.663,0,0,1-7.863,3.549,4.991,4.991,0,0,1-5.456-3.255,6.336,6.336,0,0,0-4.258.789,10.772,10.772,0,0,1-7.174,1.192,13.213,13.213,0,0,1-5.855-2.213,8.978,8.978,0,0,1-4.028-8.726,15.486,15.486,0,0,1,2.949-7.55c.3-.429.558-.9.875-1.416a11.089,11.089,0,0,0-.981-1.067,11.006,11.006,0,0,1-4.05-8.352,3.263,3.263,0,0,0-.75-1.992,5.025,5.025,0,0,1-.278-6.356,6.577,6.577,0,0,1,6.551-3.17,7.8,7.8,0,0,1,5.559,2.781,24.731,24.731,0,0,1,8.471-2.116,9.323,9.323,0,0,1,7.237,2.627,7.041,7.041,0,0,0,.877.615,11.484,11.484,0,0,1,4.339-.752,5.737,5.737,0,0,1,4.141,1.815,3.3,3.3,0,0,0,2.887,1.1,9.754,9.754,0,0,1,9.654,9.6,30.122,30.122,0,0,1-.833,4.8C1708.822,283.616,1708.817,283.613,1708.817,283.613Zm-4.223-.333a3.3,3.3,0,0,0,2.648-3.043,11.46,11.46,0,0,0,.025-1.917,7.416,7.416,0,0,0-2.981-5.363,5.787,5.787,0,0,0-5.306-1.127,1.638,1.638,0,0,0,.183,2.116,4.465,4.465,0,0,1,.583,4.416c-.1.345-.268.669-.42,1.054,1.021,1.582,1.893,2.931,2.737,4.244C1702.975,283.528,1703.792,283.44,1704.594,283.28Zm-8.746,12.579c.1-.076.2-.148.292-.234a.6.6,0,0,0-.1-.145c-.114.059-.22.137-.324.2C1695.76,295.739,1695.807,295.8,1695.849,295.858Zm-3.248,3.716a3.909,3.909,0,0,0,1.13-.167,7.773,7.773,0,0,0-1.143-.539c-.116-.032-.3.155-.443.239C1692.3,299.271,1692.422,299.529,1692.6,299.574Zm-4.964,2.457a2.828,2.828,0,0,0,2.906.036c-.574-.623-1.1-1.191-1.578-1.717A1.625,1.625,0,0,0,1687.637,302.03Zm7.306-9.144c-.039-.179-.075-.363-.114-.542a15.038,15.038,0,0,0-1.686.356c-.16.051-.215.4-.321.618.141.054.307.195.427.158C1693.822,293.3,1694.382,293.085,1694.943,292.886Zm-4.268-3.095c.294-.079.506-.446.881-.8-1.091-1.057-2.033-2-3.638-1.487a.816.816,0,0,0-.421,1.3A2.949,2.949,0,0,0,1690.675,289.791Zm-7.56,9.305c2.119-.368,2.119-.368,2.509-2.269-.689-.131-1.375-.267-2.075-.4a3.358,3.358,0,0,0-.354.83C1683.13,297.787,1683.143,298.325,1683.115,299.1Zm3.688-6.742c.051.044.223-.057.35-.1a2.706,2.706,0,0,0-.351-.325c-.052-.032-.16.018-.245.031A1.25,1.25,0,0,0,1686.8,292.355Zm.437-9.187c.444-.155,1.38-.091,1.208-1.075a4.257,4.257,0,0,0-4.262.205C1685.243,283.029,1686.174,283.535,1687.24,283.167Zm-10.981,17.826c-1.968-1.387-3.931-.7-5.66-1.331-1.643-.587-3.034-1.64-4.876-2.44.964,1.548,2.16,2.908,2.9,3.167A12.177,12.177,0,0,0,1676.259,300.993Zm14.894-24.462c.355-.79.872-1.475.337-2.469-.783-.157-1.646-.33-2.737-.553-.458.747-.813,1.273-1.113,1.825-.276.5-.881.888-.673,1.752A10.667,10.667,0,0,0,1691.153,276.531Zm2.151-4.394c.75-.613,1.432-1.177,2.29-1.88-1.372-1.293-1.966-1.632-2.953-1.6a4.47,4.47,0,0,0-2.793.8,1,1,0,0,0,.125,1.757A10.236,10.236,0,0,0,1693.3,272.137Zm-11.912,19.472c.036.035.157-.014.242-.026-.048-.133-.065-.3-.157-.387-.052-.052-.233.032-.359.058A2.408,2.408,0,0,0,1681.392,291.609Zm-.749-4.091a2.322,2.322,0,0,0,.643-.142c-.092-.134-.189-.271-.353-.5-.173.081-.361.166-.547.259C1680.471,287.271,1680.549,287.512,1680.643,287.518Zm-8.678,6.364c.441,2.106,1.968,2.809,3.717,1.736C1674.437,295.036,1673.232,294.472,1671.965,293.882Zm3.994-3.394a15.848,15.848,0,0,0,1.819-.184c-.483-.593-.739-1.241-1.1-1.31-1.664-.322-3.364-.712-5.5.41a6.339,6.339,0,0,0,1.585.862A26.816,26.816,0,0,0,1675.959,290.488Zm7.76-14.366a4.034,4.034,0,0,0-.308-2.586c-1.778.454-3.458.717-4.887,2.09C1680.295,276.479,1681.8,278.022,1683.719,276.123Zm1.414-5.428,1.3-2.118c-2.333-2.742-4.666-3.216-8.866-1.952a4.014,4.014,0,0,0-.092.784,4.868,4.868,0,0,1-1.415,4.005,1.748,1.748,0,0,0-.5.652,1.35,1.35,0,0,0-.018.978,1.074,1.074,0,0,0,.927.355c.524-.106.992-.458,1.507-.614C1680.337,272.078,1682.7,271.4,1685.134,270.7Zm-17.557,22.164c-.147.556-.538,1.267.452,1.35C1667.861,293.713,1667.72,293.29,1667.577,292.859Zm-.417-4.728.619-1.01c-.068-.048-.143-.094-.21-.142-.226.327-.448.656-.669.986C1666.989,288.02,1667.071,288.077,1667.16,288.131Zm6.056-7.643c-1.1-1.582-.225-3.059.013-4.69-1.324-1.529-2.7-1.32-4.051-.455-1.191.763-1.112,2.045-1,3.228a3.648,3.648,0,0,0,1.7,2.967C1670.991,281.187,1672.031,280.861,1673.216,280.489Zm1.172-11.6a2.789,2.789,0,0,0,.455-.542c.038-.061-.137-.239-.274-.459a2.345,2.345,0,0,0-.386.578C1674.145,268.579,1674.314,268.747,1674.388,268.89Zm-10.08,9.505c.281.353.494.755,1.087.492.159-1.208.322-2.433.5-3.749l-2.2-.351A4.156,4.156,0,0,0,1664.308,278.395Zm4.212-6.026c.166-.861.293-1.533.459-2.394a5.434,5.434,0,0,0-1.926-.063,4.523,4.523,0,0,0-2.388,2.135C1665.939,272.667,1667.073,272.451,1668.52,272.369Zm1.55-4.246c-.044-.266,0-.618-.141-.739a10.629,10.629,0,0,0-1.779-1.252,4.8,4.8,0,0,0-6.194,1.806,4.648,4.648,0,0,0-.281,2.1c0,.257.336.516.539.8C1665.265,267.768,1666.042,267.5,1670.069,268.122Z" transform="translate(-1347.687 -244.825)"/>
      </g>
    </g>
    <g id="Path_1972" data-name="Path 1972" transform="translate(587 711)" fill="#fff">
      <path d="M 12.74289321899414 20.57812309265137 L -1.964662671089172 20.57812309265137 L 1.648506641387939 2.000002384185791 L 9.333622932434082 2.000002384185791 L 12.74289321899414 20.57812309265137 Z" stroke="none"/>
      <path d="M 3.297002792358398 4.000001907348633 L 0.4617738723754883 18.57812309265137 L 10.34247779846191 18.57812309265137 L 7.667247772216797 4.000001907348633 L 3.297002792358398 4.000001907348633 M -9.5367431640625e-07 1.9073486328125e-06 L 10.99999904632568 1.9073486328125e-06 L 15.14330863952637 22.57812309265137 L -4.391111373901367 22.57812309265137 L -9.5367431640625e-07 1.9073486328125e-06 Z" stroke="none" fill="#354458"/>
    </g>
    <g id="Path_1973" data-name="Path 1973" transform="translate(556 711)" fill="#fff">
      <path d="M 12.74289321899414 20.57812309265137 L -1.964662671089172 20.57812309265137 L 1.648506641387939 2.000002384185791 L 9.333622932434082 2.000002384185791 L 12.74289321899414 20.57812309265137 Z" stroke="none"/>
      <path d="M 3.297002792358398 4.000001907348633 L 0.4617738723754883 18.57812309265137 L 10.34247779846191 18.57812309265137 L 7.667247772216797 4.000001907348633 L 3.297002792358398 4.000001907348633 M -9.5367431640625e-07 1.9073486328125e-06 L 10.99999904632568 1.9073486328125e-06 L 15.14330863952637 22.57812309265137 L -4.391111373901367 22.57812309265137 L -9.5367431640625e-07 1.9073486328125e-06 Z" stroke="none" fill="#354458"/>
    </g>
  </g>
</svg>
