<svg xmlns="http://www.w3.org/2000/svg" width="414.987" height="152.234" viewBox="0 0 414.987 152.234">
  <path id="Path_1969" data-name="Path 1969" d="M-122.416-56.135h18.746v14.729a5.144,5.144,0,0,1-1.339,3.554,4.985,4.985,0,0,1-3.914,1.494h-13.493V0h-22.248V-36.359h-62.83a6.96,6.96,0,0,1-4.532-1.6,6.892,6.892,0,0,1-2.472-3.966L-217.072-54.8l70.555-94.245h24.1Zm-22.248-48.719q0-3.3.206-7.107t.721-7.931l-46.247,63.757h45.32ZM16.429-74.469q0,19.467-4.172,33.836T.721-16.892A46.648,46.648,0,0,1-16.686-2.935,51.593,51.593,0,0,1-38.367,1.648,50.9,50.9,0,0,1-59.946-2.935,46.454,46.454,0,0,1-77.2-16.892q-7.313-9.373-11.433-23.741t-4.12-33.836q0-19.57,4.12-33.887t11.433-23.69A46.454,46.454,0,0,1-59.946-146a50.9,50.9,0,0,1,21.579-4.583A51.593,51.593,0,0,1-16.686-146,46.648,46.648,0,0,1,.721-132.046q7.365,9.373,11.536,23.69T16.429-74.469Zm-26.265,0q0-16.171-2.369-26.78t-6.334-16.892q-3.966-6.283-9.116-8.806a24.059,24.059,0,0,0-10.712-2.523,23.526,23.526,0,0,0-10.558,2.523q-5.1,2.524-9.012,8.806t-6.232,16.892q-2.317,10.609-2.317,26.78t2.317,26.78Q-61.851-37.08-57.937-30.8t9.012,8.806a23.526,23.526,0,0,0,10.558,2.524A24.058,24.058,0,0,0-27.656-21.99q5.15-2.523,9.116-8.806t6.334-16.892Q-9.836-58.3-9.836-74.469Zm130.5,18.334H139.41v14.729a5.144,5.144,0,0,1-1.339,3.554,4.985,4.985,0,0,1-3.914,1.494H120.664V0H98.417V-36.359H35.587a6.96,6.96,0,0,1-4.532-1.6,6.892,6.892,0,0,1-2.472-3.966L26.008-54.8l70.555-94.245h24.1ZM98.417-104.854q0-3.3.206-7.107t.721-7.931L53.1-56.135h45.32Zm96.2-44.084v58.916a179.605,179.605,0,0,1-.927,18.385q-.927,9.013-2.472,19.107h-17.2q-1.545-10.094-2.472-19.107a179.605,179.605,0,0,1-.927-18.385v-58.916ZM166.706-14.008a15.84,15.84,0,0,1,1.184-6.077,14.522,14.522,0,0,1,3.3-4.944,16.223,16.223,0,0,1,5-3.3,15.521,15.521,0,0,1,6.18-1.236,15.266,15.266,0,0,1,6.077,1.236,15.586,15.586,0,0,1,4.944,3.3,15.586,15.586,0,0,1,3.3,4.944,15.266,15.266,0,0,1,1.236,6.077,15.154,15.154,0,0,1-1.236,6.129,15.741,15.741,0,0,1-3.3,4.892A14.911,14.911,0,0,1,188.438.257a15.84,15.84,0,0,1-6.077,1.185,16.106,16.106,0,0,1-6.18-1.185,15.5,15.5,0,0,1-5-3.244,14.643,14.643,0,0,1-3.3-4.892A15.724,15.724,0,0,1,166.706-14.008Z" transform="translate(217.073 150.586)" fill="#7868E6"/>
</svg>
